<mxfile host="app.diagrams.net" modified="2023-04-24T19:33:46.564Z" agent="Mozilla/5.0 (Windows NT 10.0; Win64; x64) AppleWebKit/537.36 (KHTML, like Gecko) Chrome/112.0.0.0 Safari/537.36" version="21.2.1" etag="kAt1p7MyCqV2BgWwBxqZ" type="github">
  <diagram name="PÃ¡gina-1" id="dZxpAUJsRqWoLs9Alrlo">
    <mxGraphModel>
      <root>
        <mxCell id="0" />
        <mxCell id="1" parent="0" />
      </root>
    </mxGraphModel>
  </diagram>
</mxfile>
